<svg xmlns="http://www.w3.org/2000/svg" viewBox="0 0 800 600" role="img" aria-label="Abstract illustration of a project dashboard with charts and code">
  <rect width="800" height="600" fill="#eef2ff"/>
  <circle cx="660" cy="110" r="170" fill="#4f46e5" opacity="0.08"/>
  <circle cx="110" cy="500" r="210" fill="#4f46e5" opacity="0.07"/>
  <g fill="#4f46e5" opacity="0.14">
    <circle cx="80" cy="120" r="4"/><circle cx="130" cy="120" r="4"/><circle cx="180" cy="120" r="4"/>
    <circle cx="80" cy="170" r="4"/><circle cx="130" cy="170" r="4"/><circle cx="180" cy="170" r="4"/>
    <circle cx="80" cy="220" r="4"/><circle cx="130" cy="220" r="4"/><circle cx="180" cy="220" r="4"/>
  </g>

  <!-- main browser window -->
  <rect x="190" y="120" width="420" height="330" rx="20" fill="#ffffff" stroke="#c7d2fe" stroke-width="2"/>
  <rect x="190" y="120" width="420" height="52" rx="20" fill="#e0e7ff"/>
  <rect x="190" y="152" width="420" height="20" fill="#e0e7ff"/>
  <circle cx="222" cy="146" r="7" fill="#f87171"/>
  <circle cx="246" cy="146" r="7" fill="#fbbf24"/>
  <circle cx="270" cy="146" r="7" fill="#34d399"/>
  <rect x="300" y="134" width="280" height="24" rx="12" fill="#ffffff"/>

  <!-- sidebar -->
  <rect x="214" y="196" width="90" height="230" rx="12" fill="#eef2ff"/>
  <rect x="228" y="216" width="62" height="12" rx="6" fill="#a5b4fc"/>
  <rect x="228" y="246" width="62" height="12" rx="6" fill="#c7d2fe"/>
  <rect x="228" y="276" width="62" height="12" rx="6" fill="#c7d2fe"/>
  <rect x="228" y="306" width="62" height="12" rx="6" fill="#c7d2fe"/>
  <rect x="228" y="336" width="62" height="12" rx="6" fill="#c7d2fe"/>

  <!-- chart bars -->
  <rect x="336" y="330" width="30" height="70" rx="8" fill="#a5b4fc"/>
  <rect x="382" y="292" width="30" height="108" rx="8" fill="#818cf8"/>
  <rect x="428" y="252" width="30" height="148" rx="8" fill="#6366f1"/>
  <rect x="474" y="216" width="30" height="184" rx="8" fill="#4f46e5"/>
  <polyline points="342,318 388,280 434,240 480,204" fill="none" stroke="#f59e0b" stroke-width="5" stroke-linecap="round" stroke-linejoin="round"/>
  <circle cx="480" cy="204" r="8" fill="#f59e0b"/>

  <!-- text lines -->
  <rect x="336" y="196" width="170" height="14" rx="7" fill="#c7d2fe"/>
  <rect x="336" y="222" width="110" height="12" rx="6" fill="#e0e7ff"/>

  <!-- floating chips -->
  <g>
    <rect x="120" y="300" width="96" height="60" rx="14" fill="#4f46e5"/>
    <path d="M156 318l-12 12 12 12M180 318l12 12-12 12" fill="none" stroke="#ffffff" stroke-width="5" stroke-linecap="round" stroke-linejoin="round"/>
  </g>
  <g>
    <rect x="580" y="210" width="92" height="60" rx="14" fill="#ffffff" stroke="#c7d2fe" stroke-width="2"/>
    <path d="M598 252c0-14 12-22 28-22s28 8 28 22" fill="none" stroke="#4f46e5" stroke-width="5" stroke-linecap="round"/>
    <circle cx="626" cy="228" r="11" fill="#4f46e5"/>
  </g>
  <g>
    <rect x="596" y="380" width="104" height="56" rx="14" fill="#f59e0b"/>
    <rect x="614" y="400" width="18" height="16" rx="4" fill="#ffffff"/>
    <rect x="640" y="394" width="18" height="22" rx="4" fill="#ffffff" opacity="0.85"/>
    <rect x="666" y="404" width="18" height="12" rx="4" fill="#ffffff" opacity="0.7"/>
  </g>
  <g>
    <circle cx="170" cy="220" r="34" fill="#ffffff" stroke="#c7d2fe" stroke-width="2"/>
    <path d="M156 220l10 10 18-20" fill="none" stroke="#10b981" stroke-width="6" stroke-linecap="round" stroke-linejoin="round"/>
  </g>

  <!-- base line -->
  <rect x="150" y="470" width="500" height="16" rx="8" fill="#c7d2fe" opacity="0.6"/>
</svg>
